<svg xmlns:dc="http://purl.org/dc/elements/1.1/" xmlns:cc="http://creativecommons.org/ns#" xmlns:rdf="http://www.w3.org/1999/02/22-rdf-syntax-ns#" xmlns:svg="http://www.w3.org/2000/svg" xmlns="http://www.w3.org/2000/svg" xmlns:sodipodi="http://sodipodi.sourceforge.net/DTD/sodipodi-0.dtd" xmlns:inkscape="http://www.inkscape.org/namespaces/inkscape" version="1.1" x="0px" y="0px" viewBox="0 0 100 125">
   <g transform="translate(0,-952.36218)">
      <path style="text-indent:0;text-transform:none;direction:ltr;block-progression:tb;baseline-shift:baseline;color:#000000;enable-background:accumulate;" d="m 43,973.36219 c -4.9341,0 -9,4.0659 -9,9 l 0,13.99997 c 0,1.7139 -1.2861,3 -3,3 l -4,0 0,6.00004 4,0 c 1.7139,0 3,1.2861 3,3 l 0,14 c 0,4.9341 4.0659,9 9,9 l 4,0 0,-6 -4,0 c -1.7139,0 -3,-1.2861 -3,-3 l 0,-14 c 0,-2.3051 -0.8948,-4.3999 -2.3438,-6 1.44,-1.5981 2.3438,-3.70294 2.3438,-6.00004 l 0,-13.99996 c 0,-1.71388 1.2861,-3 3,-3 l 4,0 0,-6 -4,0 z m 10,0 0,6 4,0 c 1.7139,0 3,1.28612 3,3 l 0,13.99997 c 0,2.2971 0.9038,4.40194 2.3438,6.00004 -1.449,1.6001 -2.3438,3.6949 -2.3438,6 l 0,14 c 0,1.7139 -1.2861,3 -3,3 l -4,0 0,6 4,0 c 4.9341,0 9,-4.0659 9,-9 l 0,-14 c 0,-1.7139 1.2861,-3 3,-3 l 4,0 0,-6.00004 -4,0 c -1.7139,0 -3,-1.2861 -3,-3 l 0,-13.99996 c 0,-4.9341 -4.0659,-9 -9,-9 l -4,0 z" fill="#7485c2" fill-opacity="1" stroke="none" marker="none" visibility="visible" display="inline" overflow="visible"/>
   </g>
</svg>
